<svg id="Layer_1" data-name="Layer 1" xmlns="http://www.w3.org/2000/svg" width="36px" height="36px" viewBox="0 0 64 57.13"><defs><style>.cls-1{fill:#ddd;}</style></defs><title>wow-house-icon</title><path class="cls-1" d="M62.56,28.52,35.48,1.44a4.93,4.93,0,0,0-7,0L1.44,28.52a4.92,4.92,0,0,0,7,7L32,11.88l23.6,23.6a4.92,4.92,0,1,0,7-7Z"/><path class="cls-1" d="M9.85,36.23v16a4.92,4.92,0,0,0,4.92,4.92h9.85v-15a4.92,4.92,0,0,1,4.92-4.92h4.92a4.92,4.92,0,0,1,4.92,4.92v15h9.85a4.92,4.92,0,0,0,4.92-4.92v-16L32,14.08Z"/></svg>
