<svg id="Layer_1" data-name="Layer 1" xmlns="http://www.w3.org/2000/svg" width="36px" height="36px" viewBox="0 0 64 63.57"><defs><style>.cls-1{fill:#000;}</style></defs><title>wow-gears-icon</title><g id="Settings"><g id="Group_4" data-name="Group 4"><g id="Group_3" data-name="Group 3"><g id="Path_6" data-name="Path 6"><path class="cls-1" d="M61.71,17.42h0a14.51,14.51,0,0,0-.16-5.29l2.25-1.82A3.44,3.44,0,0,0,62,7.18l-2.41.66a.16.16,0,0,0-.16-.16,12.19,12.19,0,0,0-4-3.64l.32-2.81A3.54,3.54,0,0,0,52.38.07L50.93,2.55a11.45,11.45,0,0,0-5.31.33L43.85.73a3.06,3.06,0,0,0-3.06,1.65l.64,2.48a13,13,0,0,0-3.38,4H34.84a3.39,3.39,0,0,0-.64,3.47l2.25,1.16h0a13.15,13.15,0,0,0,.32,5.62l-2.25,1.82A3.16,3.16,0,0,0,36.13,24l2.57-.66a11.18,11.18,0,0,0,3.86,3.47L42.4,30a3,3,0,0,0,3.38.83l1.13-2.31a12.15,12.15,0,0,0,5.47-.33l1.77,2.14A3.35,3.35,0,0,0,57.2,28.5L56.56,26a15.23,15.23,0,0,0,3.38-3.8l3.06.16a3.24,3.24,0,0,0,.8-3.47Zm-3.54-.66a8.78,8.78,0,0,1-3.7,6.11,8.29,8.29,0,0,1-6.76,1.65A9.44,9.44,0,0,1,40,13.79a8.78,8.78,0,0,1,3.7-6.11A8.29,8.29,0,0,1,50.45,6a8.49,8.49,0,0,1,6,3.8A9.65,9.65,0,0,1,58.17,16.76Z"/></g></g><g id="Path_7" data-name="Path 7"><path class="cls-1" d="M48.86,13a2.44,2.44,0,0,1,2.55,2.31h0a2.41,2.41,0,1,1-4.82.31h0A2.46,2.46,0,0,1,48.86,13Z"/></g></g><g id="Group_5" data-name="Group 5"><g id="Path_8" data-name="Path 8"><path class="cls-1" d="M41.11,38.91h0a19.58,19.58,0,0,0-1.93-7.6L41.76,28a4.56,4.56,0,0,0-3.38-3.8L35.16,26,35,25.86a17.55,17.55,0,0,0-6.76-4l-.32-4.13a4.49,4.49,0,0,0-5-.5l-1.29,4a16.78,16.78,0,0,0-7.56,2.14L11,20.73A4.62,4.62,0,0,0,7.17,24l1.77,3.47a19.24,19.24,0,0,0-3.7,6.61l-4.5,1a4.84,4.84,0,0,0,0,5.12l3.54.83h0A22.24,22.24,0,0,0,6.36,49L3.79,52.3a4.63,4.63,0,0,0,3.22,4l3.54-1.82a18.82,18.82,0,0,0,6.6,3.8l.64,4.46a4.41,4.41,0,0,0,5,.16l1-3.64a18.27,18.27,0,0,0,7.72-2.31l3.22,2.48a4.93,4.93,0,0,0,3.86-3.47l-1.77-3.47A18.11,18.11,0,0,0,40.31,46l4.34-.66a4.73,4.73,0,0,0,.16-5.12ZM36,39.07A14,14,0,0,1,32.59,49a13.44,13.44,0,0,1-9.17,4.63,13.35,13.35,0,0,1-14-12.69q0-.1,0-.2a14,14,0,0,1,3.38-9.92A13.44,13.44,0,0,1,22,26.19a13.22,13.22,0,0,1,9.65,3.47A14.65,14.65,0,0,1,36,39.08Z"/></g><g id="Path_9" data-name="Path 9"><path class="cls-1" d="M19.65,29.19a10.91,10.91,0,0,0-7.49,13.48l0,.11a10.55,10.55,0,0,0,12.72,7.8l.52-.14A10.91,10.91,0,0,0,32.91,37l0-.11a10.77,10.77,0,0,0-13.14-7.69ZM23,41.78a1.8,1.8,0,0,1-2.23-1.23l0-.07A1.86,1.86,0,0,1,22,38.16h0a1.8,1.8,0,0,1,2.23,1.23l0,.07A1.93,1.93,0,0,1,23,41.78Z"/></g></g></g></svg>
